<svg width="512" height="512" viewBox="0 0 512 512" fill="none" xmlns="http://www.w3.org/2000/svg">
  <!-- 배경 원 -->
  <circle cx="256" cy="256" r="256" fill="#3B82F6"/>
  
  <!-- 일기장 -->
  <rect x="120" y="140" width="272" height="232" rx="16" fill="white" stroke="#1E40AF" stroke-width="8"/>
  
  <!-- 일기장 바인딩 -->
  <rect x="120" y="140" width="40" height="232" fill="#1E40AF"/>
  
  <!-- 일기장 줄들 -->
  <line x1="180" y1="180" x2="380" y2="180" stroke="#6B7280" stroke-width="3" stroke-linecap="round"/>
  <line x1="180" y1="200" x2="380" y2="200" stroke="#6B7280" stroke-width="3" stroke-linecap="round"/>
  <line x1="180" y1="220" x2="380" y2="220" stroke="#6B7280" stroke-width="3" stroke-linecap="round"/>
  <line x1="180" y1="240" x2="380" y2="240" stroke="#6B7280" stroke-width="3" stroke-linecap="round"/>
  <line x1="180" y1="260" x2="380" y2="260" stroke="#6B7280" stroke-width="3" stroke-linecap="round"/>
  <line x1="180" y1="280" x2="380" y2="280" stroke="#6B7280" stroke-width="3" stroke-linecap="round"/>
  <line x1="180" y1="300" x2="380" y2="300" stroke="#6B7280" stroke-width="3" stroke-linecap="round"/>
  <line x1="180" y1="320" x2="380" y2="320" stroke="#6B7280" stroke-width="3" stroke-linecap="round"/>
  <line x1="180" y1="340" x2="380" y2="340" stroke="#6B7280" stroke-width="3" stroke-linecap="round"/>
  
  <!-- 꽃 -->
  <circle cx="320" cy="200" r="12" fill="#F59E0B"/>
  <circle cx="330" cy="190" r="8" fill="#F59E0B"/>
  <circle cx="310" cy="190" r="8" fill="#F59E0B"/>
  <circle cx="320" cy="180" r="8" fill="#F59E0B"/>
  <circle cx="330" cy="210" r="8" fill="#F59E0B"/>
  <circle cx="310" cy="210" r="8" fill="#F59E0B"/>
  <circle cx="300" cy="200" r="8" fill="#F59E0B"/>
  <circle cx="340" cy="200" r="8" fill="#F59E0B"/>
  
  <!-- 꽃 중앙 -->
  <circle cx="320" cy="200" r="6" fill="#DC2626"/>
  
  <!-- 꽃 줄기 -->
  <line x1="320" y1="212" x2="320" y2="240" stroke="#16A34A" stroke-width="4" stroke-linecap="round"/>
  
  <!-- 잎 -->
  <ellipse cx="310" cy="230" rx="8" ry="4" fill="#16A34A" transform="rotate(-30 310 230)"/>
  <ellipse cx="330" cy="225" rx="8" ry="4" fill="#16A34A" transform="rotate(30 330 225)"/>
  
  <!-- 감정 표현 (웃는 얼굴) -->
  <circle cx="200" cy="200" r="20" fill="#FEF3C7"/>
  <circle cx="195" cy="195" r="3" fill="#374151"/>
  <circle cx="205" cy="195" r="3" fill="#374151"/>
  <path d="M 190 210 Q 200 220 210 210" stroke="#374151" stroke-width="3" fill="none" stroke-linecap="round"/>
</svg>
